<svg width="22" height="23" viewBox="0 0 22 23" fill="none" xmlns="http://www.w3.org/2000/svg">
<path d="M3.14258 1.44995H14.1426C14.7772 1.44995 15.3862 1.70238 15.835 2.15112C16.2835 2.59979 16.5361 3.2081 16.5361 3.84253V15.5925H21.25V17.9861C21.2499 19.0373 20.8322 20.0455 20.0889 20.7888C19.3455 21.5322 18.3374 21.9498 17.2861 21.95H4.71387C3.66262 21.9498 2.65448 21.5322 1.91113 20.7888C1.16778 20.0455 0.750111 19.0373 0.75 17.9861V3.84253C0.750074 3.208 1.00249 2.5998 1.45117 2.15112C1.89985 1.70244 2.50805 1.45003 3.14258 1.44995ZM16.5361 21.8787H17.2861C18.3184 21.8786 19.3081 21.468 20.0381 20.738C20.768 20.0081 21.1786 19.0184 21.1787 17.9861V15.6638H16.5361V21.8787ZM5.5 14.0925C5.0927 14.0925 4.70207 14.2547 4.41406 14.5427C4.1261 14.8307 3.96387 15.2214 3.96387 15.6287C3.9639 16.0359 4.12609 16.4266 4.41406 16.7146C4.70206 17.0026 5.09274 17.1638 5.5 17.1638H8.64258C9.04977 17.1638 9.44053 17.0025 9.72852 16.7146C10.0165 16.4266 10.1787 16.0359 10.1787 15.6287C10.1787 15.2214 10.0165 14.8307 9.72852 14.5427C9.44052 14.2548 9.04984 14.0925 8.64258 14.0925H5.5ZM5.5 9.37866C5.0928 9.37866 4.70205 9.54001 4.41406 9.82788C4.12616 10.1158 3.96398 10.5067 3.96387 10.9138C3.96387 11.321 4.12619 11.7118 4.41406 11.9998C4.70207 12.2878 5.0927 12.45 5.5 12.45H11.7861C12.1933 12.4498 12.5842 12.2877 12.8721 11.9998C13.1598 11.7118 13.3213 11.3209 13.3213 10.9138C13.3212 10.5067 13.16 10.1158 12.8721 9.82788C12.5842 9.53997 12.1933 9.37877 11.7861 9.37866H5.5ZM5.5 4.66382C5.0927 4.66382 4.70206 4.82601 4.41406 5.11401C4.12606 5.40202 3.96387 5.79265 3.96387 6.19995C3.96387 6.60725 4.12606 6.99789 4.41406 7.28589C4.70206 7.57389 5.0927 7.73608 5.5 7.73608H11.7861C12.1933 7.73597 12.5842 7.57379 12.8721 7.28589C13.1599 6.99791 13.3213 6.60715 13.3213 6.19995C13.3213 5.79275 13.1599 5.402 12.8721 5.11401C12.5842 4.82611 12.1933 4.66393 11.7861 4.66382H5.5Z" stroke="#777777" stroke-width="1.5"/>
</svg>
