<svg width="14" height="23" viewBox="0 0 14 23" fill="none" xmlns="http://www.w3.org/2000/svg">
<path d="M13.2303 17.8607C12.8834 17.9793 12.5135 18.0452 12.1269 18.0452C10.9212 18.0452 10.3398 17.4127 9.81123 16.464C9.63615 16.1642 9.54035 15.5054 9.54035 15.5054V10.304H14L13.7655 8.22871C13.6498 7.20753 12.781 6.43341 11.7504 6.43341H9.54365V0C9.54365 0 8.20906 0.0889415 7.7631 0.121883C5.48042 0.299765 3.93771 1.81506 3.93771 3.58729L3.94762 6.57835L0 6.72329V8.21882C0 9.36847 0.934875 10.3007 2.08447 10.3007H3.94431V15.6273L3.97074 16.4047C3.98726 19.7219 6.68617 22.4 10.016 22.4C11.1987 22.4 12.302 22.0607 13.2336 21.4744V17.8607H13.2303Z" fill="#FF5A00"/>
</svg>
