<svg width="22" height="23" viewBox="0 0 22 23" fill="none" xmlns="http://www.w3.org/2000/svg">
<path d="M11.0004 1.45007C13.421 1.45031 15.3832 3.41315 15.3832 5.83386C15.3829 8.25437 13.4209 10.2164 11.0004 10.2167C8.57966 10.2167 6.61681 8.25452 6.61658 5.83386C6.61658 3.413 8.57951 1.45007 11.0004 1.45007Z" stroke="#777777" stroke-width="1.5" stroke-linecap="round"/>
<path d="M8.57245 14.65H13.4269C16.8309 14.65 19.9547 16.1865 20.7648 19.1549C20.9585 19.8633 21.0954 20.586 21.175 21.316C21.2086 21.6241 20.9536 21.9498 20.5334 21.9498H1.46698C1.10047 21.9498 0.858049 21.7003 0.825378 21.4323L0.824402 21.317C0.903835 20.5875 1.04258 19.8645 1.23651 19.1549V19.1539C2.0454 16.186 5.16852 14.6501 8.57245 14.65Z" stroke="#777777" stroke-width="1.5" stroke-linecap="round"/>
</svg>
